<svg id="visual" viewBox="0 0 900 600" width="900" height="600" xmlns="http://www.w3.org/2000/svg" xmlns:xlink="http://www.w3.org/1999/xlink" version="1.1"><rect width="900" height="600" fill="#001829"></rect><g><g transform="translate(570 422)"><path d="M0 -34.7L30 -17.3L30 17.3L0 34.7L-30 17.3L-30 -17.3Z" fill="#297EA6"></path></g><g transform="translate(450 125)"><path d="M0 -29L25.1 -14.5L25.1 14.5L0 29L-25.1 14.5L-25.1 -14.5Z" fill="#297EA6"></path></g><g transform="translate(77 363)"><path d="M0 -28L24.2 -14L24.2 14L0 28L-24.2 14L-24.2 -14Z" fill="#297EA6"></path></g><g transform="translate(205 24)"><path d="M0 -28L24.2 -14L24.2 14L0 28L-24.2 14L-24.2 -14Z" fill="#297EA6"></path></g><g transform="translate(242 422)"><path d="M0 -31L26.8 -15.5L26.8 15.5L0 31L-26.8 15.5L-26.8 -15.5Z" fill="#297EA6"></path></g><g transform="translate(241 597)"><path d="M0 -30L26 -15L26 15L0 30L-26 15L-26 -15Z" fill="#297EA6"></path></g><g transform="translate(714 206)"><path d="M0 -23L19.9 -11.5L19.9 11.5L0 23L-19.9 11.5L-19.9 -11.5Z" fill="#297EA6"></path></g><g transform="translate(185 112)"><path d="M0 -27L23.4 -13.5L23.4 13.5L0 27L-23.4 13.5L-23.4 -13.5Z" fill="#297EA6"></path></g><g transform="translate(700 19)"><path d="M0 -24L20.8 -12L20.8 12L0 24L-20.8 12L-20.8 -12Z" fill="#297EA6"></path></g><g transform="translate(633 184)"><path d="M0 -25L21.7 -12.5L21.7 12.5L0 25L-21.7 12.5L-21.7 -12.5Z" fill="#297EA6"></path></g><g transform="translate(816 552)"><path d="M0 -26L22.5 -13L22.5 13L0 26L-22.5 13L-22.5 -13Z" fill="#297EA6"></path></g><g transform="translate(28 557)"><path d="M0 -21L18.2 -10.5L18.2 10.5L0 21L-18.2 10.5L-18.2 -10.5Z" fill="#297EA6"></path></g><g transform="translate(82 145)"><path d="M0 -23L19.9 -11.5L19.9 11.5L0 23L-19.9 11.5L-19.9 -11.5Z" fill="#297EA6"></path></g><g transform="translate(704 136)"><path d="M0 -30L26 -15L26 15L0 30L-26 15L-26 -15Z" fill="#297EA6"></path></g><g transform="translate(154 440)"><path d="M0 -19L16.5 -9.5L16.5 9.5L0 19L-16.5 9.5L-16.5 -9.5Z" fill="#297EA6"></path></g><g transform="translate(204 229)"><path d="M0 -30L26 -15L26 15L0 30L-26 15L-26 -15Z" fill="#297EA6"></path></g><g transform="translate(422 387)"><path d="M0 -24L20.8 -12L20.8 12L0 24L-20.8 12L-20.8 -12Z" fill="#297EA6"></path></g><g transform="translate(61 29)"><path d="M0 -25L21.7 -12.5L21.7 12.5L0 25L-21.7 12.5L-21.7 -12.5Z" fill="#297EA6"></path></g><g transform="translate(527 491)"><path d="M0 -21L18.2 -10.5L18.2 10.5L0 21L-18.2 10.5L-18.2 -10.5Z" fill="#297EA6"></path></g><g transform="translate(89 227)"><path d="M0 -30L26 -15L26 15L0 30L-26 15L-26 -15Z" fill="#297EA6"></path></g><g transform="translate(591 572)"><path d="M0 -30L26 -15L26 15L0 30L-26 15L-26 -15Z" fill="#297EA6"></path></g><g transform="translate(286 216)"><path d="M0 -17L14.7 -8.5L14.7 8.5L0 17L-14.7 8.5L-14.7 -8.5Z" fill="#297EA6"></path></g><g transform="translate(429 7)"><path d="M0 -30L26 -15L26 15L0 30L-26 15L-26 -15Z" fill="#297EA6"></path></g><g transform="translate(589 42)"><path d="M0 -22L19.1 -11L19.1 11L0 22L-19.1 11L-19.1 -11Z" fill="#297EA6"></path></g></g></svg>